<?xml version="1.0" encoding="UTF-8"?>
<!DOCTYPE svg PUBLIC "-//W3C//DTD SVG 1.1//EN" "http://www.w3.org/Graphics/SVG/1.1/DTD/svg11.dtd">
<!-- Creator: CorelDRAW 2017 -->
<svg xmlns="http://www.w3.org/2000/svg" xml:space="preserve" width="10mm" height="10mm" version="1.1" style="shape-rendering:geometricPrecision; text-rendering:geometricPrecision; image-rendering:optimizeQuality; fill-rule:evenodd; clip-rule:evenodd"
viewBox="0 0 1000 1000"
 xmlns:xlink="http://www.w3.org/1999/xlink">
 <defs>
  <style type="text/css">
   <![CDATA[
    .fil0 {fill:#D61515}
   ]]>
  </style>
 </defs>
 <g id="Слой_x0020_1">
  <metadata id="CorelCorpID_0Corel-Layer"/>
  <g id="_2649227973968">
   <path class="fil0" d="M358 309c-5,8 -12,-1 -15,22 -4,32 7,58 24,84 3,4 6,6 9,10l8 9c7,10 1,24 38,69l-23 13c2,6 10,11 15,14 44,28 36,13 47,6 26,-20 89,-19 114,-10 29,11 43,43 35,78 -8,35 -38,44 -72,44 -16,0 -37,2 -50,-1 -14,-3 -27,-10 -36,-21 -4,-5 -4,-6 -10,-8 -25,-10 -48,-13 -76,-34 -7,-5 -26,-21 -30,-26 -3,-3 -4,-7 -8,-9 -8,1 -23,9 -31,12 -29,11 -70,26 -89,50 -2,2 -2,3 -5,5 -3,4 -6,8 -9,12 -19,27 -29,56 -37,91 -7,34 -12,49 13,60 25,12 113,23 144,26l77 7c11,-1 45,3 60,3l79 1c7,0 13,-1 20,-1 27,0 61,-1 88,-4l37 -3c12,-2 24,-1 36,-4 34,-6 67,-8 104,-16 11,-3 20,-4 31,-9 5,-2 9,-5 12,-8 14,-13 1,-55 -4,-73 -2,-7 -5,-17 -8,-24 -12,-31 -28,-57 -52,-78 -28,-23 -147,-61 -198,-93 1,-3 15,-17 24,-34 11,-23 8,-29 18,-39l13 -16c18,-26 24,-44 24,-76 0,-25 -9,-23 -15,-27 -1,-25 1,-56 -2,-79 -5,-41 -32,-75 -69,-92 -48,-23 -129,-22 -179,11 -3,2 -3,2 -6,4 -10,8 -17,16 -25,26 -4,6 -10,18 -13,27 -11,31 -8,68 -8,102z"/>
   <path class="fil0" d="M464 572c-22,-1 -56,-16 -70,-27 -19,-16 -34,-30 -45,-52 -30,-59 -28,-92 -28,-166 0,-82 -11,-115 45,-174 5,-5 7,-6 13,-11 50,-41 131,-50 193,-31 57,18 112,63 119,125 1,10 1,13 1,22 0,8 1,14 1,22 -2,31 2,60 0,88 0,8 -2,15 3,20 5,4 12,4 20,4 17,0 26,-6 33,-16 9,-11 4,-69 4,-86 0,-17 5,-36 -11,-48 -13,-9 -13,-6 -26,-9 -19,-127 -169,-181 -288,-143 -52,17 -101,55 -122,107 -5,13 -6,24 -9,36 -2,3 -32,3 -36,25 -1,6 -1,45 -1,53 1,15 -2,45 0,56 3,15 18,23 35,25 4,29 6,52 15,78 8,22 12,29 24,48 3,5 6,9 9,13 29,38 71,60 121,67 4,12 9,21 22,25 11,4 32,2 46,2 36,0 53,-1 53,-42 0,-16 -2,-25 -14,-33 -11,-7 -26,-5 -42,-5 -13,0 -34,-2 -44,3 -13,6 -14,14 -21,25z"/>
  </g>
 </g>
</svg>
