<?xml version="1.0" encoding="UTF-8"?>
<!DOCTYPE svg PUBLIC "-//W3C//DTD SVG 1.1//EN" "http://www.w3.org/Graphics/SVG/1.1/DTD/svg11.dtd">
<!-- Creator: CorelDRAW 2017 -->
<svg xmlns="http://www.w3.org/2000/svg" xml:space="preserve" width="10mm" height="10mm" version="1.1" style="shape-rendering:geometricPrecision; text-rendering:geometricPrecision; image-rendering:optimizeQuality; fill-rule:evenodd; clip-rule:evenodd"
viewBox="0 0 1000 1000"
 xmlns:xlink="http://www.w3.org/1999/xlink">
 <defs>
  <style type="text/css">
   <![CDATA[
    .fil0 {fill:#D61515}
   ]]>
  </style>
 </defs>
 <g id="Слой_x0020_1">
  <metadata id="CorelCorpID_0Corel-Layer"/>
  <g id="_2649062323184">
   <path class="fil0" d="M649 424c9,19 -3,161 3,205 -112,0 -223,0 -335,0 7,-43 -6,-185 3,-205 16,-25 44,-19 72,-19 10,0 15,6 19,12l34 50c4,7 6,7 10,14 8,14 12,2 16,-11 4,-11 -9,-27 -15,-40 -3,-9 -9,-17 -1,-23 7,-4 49,-4 56,0 9,6 3,14 -1,23 -5,13 -18,29 -15,40 4,13 8,26 16,11 4,-8 6,-7 10,-14l34 -50c4,-6 9,-12 19,-12 27,-1 57,-7 72,19z"/>
   <circle class="fil0" cx="485" cy="296" r="87"/>
   <path class="fil0" d="M250 193c143,-130 363,-119 493,23 130,143 119,363 -23,493 -143,130 -363,119 -493,-23 -130,-143 -119,-363 23,-493zm31 34c124,-113 316,-104 429,20 113,124 104,316 -20,429 -124,113 -316,104 -429,-20 -113,-124 -104,-316 20,-429z"/>
   <rect class="fil0" transform="matrix(0.101595 -0.0924783 0.0924783 0.101595 706.682 748.691)" width="529" height="1323" rx="265" ry="265"/>
  </g>
 </g>
</svg>
