<?xml version="1.0" encoding="UTF-8"?>
<!DOCTYPE svg PUBLIC "-//W3C//DTD SVG 1.1//EN" "http://www.w3.org/Graphics/SVG/1.1/DTD/svg11.dtd">
<!-- Creator: CorelDRAW 2017 -->
<svg xmlns="http://www.w3.org/2000/svg" xml:space="preserve" width="5mm" height="5mm" version="1.1" style="shape-rendering:geometricPrecision; text-rendering:geometricPrecision; image-rendering:optimizeQuality; fill-rule:evenodd; clip-rule:evenodd"
viewBox="0 0 500 500"
 xmlns:xlink="http://www.w3.org/1999/xlink">
 <defs>
  <style type="text/css">
   <![CDATA[
    .fil0 {fill:#D61515}
   ]]>
  </style>
 </defs>
 <g id="Слой_x0020_1">
  <metadata id="CorelCorpID_0Corel-Layer"/>
  <g id="_2649069946528">
   <path class="fil0" d="M364 159c-1,13 0,29 0,42l0 84c0,7 0,14 0,21 0,3 1,18 -1,20 0,4 -4,10 -6,12 -4,5 0,3 -8,11 -4,4 -9,9 -14,11 -11,5 -21,3 -35,3l-124 0c-10,0 -14,1 -22,-3 -6,-3 -9,-5 -12,-7 -4,-2 -10,-9 -12,-13 -1,-2 -1,-2 -3,-3 -7,-8 -5,-32 -5,-45l0 -100c0,-8 0,-16 0,-24 0,-15 5,-23 17,-33 17,-15 36,-12 63,-13 16,0 33,0 50,0 17,0 33,0 50,0 18,0 29,-2 42,7 7,5 21,16 20,30zm-330 75c0,11 0,21 1,32 1,7 2,16 3,22 2,8 5,22 8,29 1,2 1,3 2,4l6 14 21 34c1,1 0,1 1,2 6,8 13,15 20,23 0,0 1,1 2,2 2,2 2,2 4,3l36 28c6,4 20,11 26,13 2,1 3,1 5,2 9,4 21,7 30,9 6,2 15,3 22,4 26,4 66,1 91,-8 15,-6 26,-10 40,-18 2,-1 3,-1 5,-2 1,-1 2,-2 4,-3 1,-1 3,-1 4,-2 2,-1 6,-4 7,-5 2,-2 5,-4 8,-6 5,-4 9,-8 14,-12l13 -13c10,-12 19,-24 27,-38 1,-2 2,-2 3,-4 1,-2 1,-3 2,-5 6,-12 11,-24 15,-37 3,-10 7,-34 7,-45 0,-12 0,-22 -1,-34 -2,-18 -5,-34 -12,-51 -1,-3 -2,-7 -4,-9l-4 -9c-5,-9 -8,-16 -13,-24l-8 -11c-6,-9 -13,-16 -20,-23l-13 -12c-4,-4 -9,-8 -14,-11 -3,-2 -4,-3 -7,-5 -3,-2 -5,-3 -8,-5 -1,-1 -2,-2 -4,-2l-8 -4c-23,-10 -36,-15 -61,-20 -3,-1 -7,-1 -11,-2 -10,-1 -37,-1 -47,0 -3,0 -7,1 -11,2 -7,1 -14,2 -21,4l-19 6c-3,1 -5,2 -9,3l-25 12c-2,1 -6,3 -8,5l-15 10c-5,4 -13,12 -17,15 -2,1 -2,1 -4,3 -1,1 -1,2 -2,3 -5,7 -13,12 -20,24 -2,3 -3,5 -5,7 -4,5 -6,10 -9,16 -5,8 -8,17 -12,26 -2,5 -5,14 -6,19 -1,7 -4,14 -4,20 -1,8 -3,15 -3,23z"/>
   <path class="fil0" d="M338 219c-5,-1 -31,-1 -33,1 -1,4 7,12 3,35 -3,15 -4,17 -12,28 -5,7 -13,14 -21,19 -13,7 -36,9 -50,5 -10,-3 -7,-3 -14,-6 -6,-3 -17,-14 -21,-19 -1,-1 -1,-2 -2,-3 -2,-3 -4,-6 -6,-9 -2,-6 -4,-8 -5,-15 -1,-7 0,-20 2,-27 1,-2 3,-4 1,-7 -3,-2 -29,-1 -33,-1 -1,4 -1,7 -1,12 0,16 -1,89 1,93 2,3 3,6 5,8 10,8 20,6 35,6 18,0 36,0 54,0 12,0 71,1 81,-1 4,-1 12,-9 14,-13 1,-3 1,-68 1,-80 0,-8 1,-18 -1,-25z"/>
   <path class="fil0" d="M210 217c-1,3 -4,7 -5,9 -3,8 -5,18 -2,27 2,7 4,13 10,18 4,4 4,5 10,8 8,4 2,3 13,5 12,2 22,-1 30,-5 5,-3 14,-12 17,-19 5,-12 5,-25 -1,-37 -2,-4 -10,-11 -13,-14 -2,-2 -9,-5 -12,-6 -5,-2 -11,-2 -17,-2 0,0 -14,2 -23,11 -2,2 -4,4 -6,5z"/>
   <path class="fil0" d="M294 191c3,1 36,2 39,0 2,-1 1,-16 1,-19 0,-4 1,-18 -1,-20 -2,-2 -5,-1 -8,-1 -3,0 -7,0 -10,0 -4,0 -17,0 -20,1 -3,1 -2,5 -2,8 0,6 0,27 0,30z"/>
  </g>
 </g>
</svg>
