<?xml version="1.0" encoding="UTF-8"?>
<!DOCTYPE svg PUBLIC "-//W3C//DTD SVG 1.1//EN" "http://www.w3.org/Graphics/SVG/1.1/DTD/svg11.dtd">
<!-- Creator: CorelDRAW 2017 -->
<svg xmlns="http://www.w3.org/2000/svg" xml:space="preserve" width="10mm" height="10mm" version="1.1" style="shape-rendering:geometricPrecision; text-rendering:geometricPrecision; image-rendering:optimizeQuality; fill-rule:evenodd; clip-rule:evenodd"
viewBox="0 0 1000 1000"
 xmlns:xlink="http://www.w3.org/1999/xlink">
 <defs>
  <style type="text/css">
   <![CDATA[
    .fil0 {fill:#D61515}
   ]]>
  </style>
 </defs>
 <g id="Слой_x0020_1">
  <metadata id="CorelCorpID_0Corel-Layer"/>
  <path class="fil0" d="M411 296l-151 0 0 -151 151 0c0,86 0,65 0,151zm0 463l-151 0 0 -151 151 0c0,86 0,65 0,151zm-134 -84l15 -18 34 44 51 -66 17 20 -63 77 -6 0 -48 -57zm134 -155l-151 0 0 -151 151 0c0,86 0,65 0,151zm-134 -84l15 -18 34 44 51 -66 17 20 -63 77 -6 0 -48 -57zm211 222l271 0 0 53 -271 0 0 -53zm0 -240l271 0 0 53 -271 0 0 -53zm-232 -366l480 0c49,0 89,45 89,94l0 685c0,49 -40,89 -89,89l-480 0c-49,0 -89,-40 -89,-89l0 -690c0,-49 40,-89 89,-89zm-5 42l490 0c29,0 53,29 53,58l0 674c0,29 -24,53 -53,53l-490 0c-29,0 -53,-24 -53,-53l0 -680c0,-29 24,-53 53,-53zm237 97l271 0 0 53 -271 0 0 -53zm-211 21l15 -18 34 44 51 -66 17 20 -63 77 -6 0 -48 -57z"/>
 </g>
</svg>
