<?xml version="1.0" encoding="UTF-8"?>
<!DOCTYPE svg PUBLIC "-//W3C//DTD SVG 1.1//EN" "http://www.w3.org/Graphics/SVG/1.1/DTD/svg11.dtd">
<!-- Creator: CorelDRAW 2017 -->
<svg xmlns="http://www.w3.org/2000/svg" xml:space="preserve" width="5mm" height="5mm" version="1.1" style="shape-rendering:geometricPrecision; text-rendering:geometricPrecision; image-rendering:optimizeQuality; fill-rule:evenodd; clip-rule:evenodd"
viewBox="0 0 500 500"
 xmlns:xlink="http://www.w3.org/1999/xlink">
 <defs>
  <style type="text/css">
   <![CDATA[
    .fil0 {fill:#D61515}
   ]]>
  </style>
 </defs>
 <g id="Слой_x0020_1">
  <metadata id="CorelCorpID_0Corel-Layer"/>
  <path class="fil0" d="M250 41c117,0 212,95 212,212 0,117 -95,212 -212,212 -117,0 -212,-95 -212,-212 0,-117 95,-212 212,-212zm0 180c-25,0 -46,-18 -46,-39 0,-22 20,-39 46,-39 25,0 46,18 46,39 0,22 -20,39 -46,39zm0 -94c-35,0 -64,25 -64,55 0,30 29,55 64,55 35,0 64,-25 64,-55 0,-30 -29,-55 -64,-55zm98 78c0,0 0,0 0,1 -3,15 -7,27 -12,36 -12,21 -66,97 -86,126 -20,-29 -74,-105 -86,-126 -5,-8 -9,-21 -12,-36 0,0 0,0 0,-1 -2,-7 -3,-14 -3,-21 0,-48 45,-86 101,-86 56,0 101,39 101,86 0,7 -1,14 -3,21zm-52 191c-1,3 -17,10 -46,10 -29,0 -45,-8 -46,-10 1,-3 13,-9 37,-10 0,0 0,1 1,1 2,2 5,4 8,4 3,0 6,-1 8,-4 0,0 0,0 1,-1 23,1 36,8 37,10zm70 -188c2,-8 3,-16 3,-24 0,-56 -54,-102 -119,-102 -66,0 -119,46 -119,102 0,8 1,16 3,24 3,17 8,30 13,40 12,21 61,91 84,122 -31,3 -45,15 -45,25 0,13 20,26 64,26 44,0 64,-14 64,-26 0,-11 -14,-22 -45,-25 23,-32 72,-101 84,-122 5,-10 10,-23 13,-40z"/>
 </g>
</svg>
