<?xml version="1.0" encoding="UTF-8"?>
<!DOCTYPE svg PUBLIC "-//W3C//DTD SVG 1.1//EN" "http://www.w3.org/Graphics/SVG/1.1/DTD/svg11.dtd">
<!-- Creator: CorelDRAW 2017 -->
<svg xmlns="http://www.w3.org/2000/svg" xml:space="preserve" width="10mm" height="10mm" version="1.1" style="shape-rendering:geometricPrecision; text-rendering:geometricPrecision; image-rendering:optimizeQuality; fill-rule:evenodd; clip-rule:evenodd"
viewBox="0 0 1000 1000"
 xmlns:xlink="http://www.w3.org/1999/xlink">
 <defs>
  <style type="text/css">
   <![CDATA[
    .fil0 {fill:#D61515}
   ]]>
  </style>
 </defs>
 <g id="Слой_x0020_1">
  <metadata id="CorelCorpID_0Corel-Layer"/>
  <g id="_2649069841904">
   <path class="fil0" d="M228 562c5,-3 35,-12 43,-12 1,2 9,74 10,83 -3,11 15,87 22,109 4,13 16,47 25,60l1 2c2,2 2,4 4,7 2,3 3,4 5,7 8,13 24,26 40,26 8,0 20,-6 23,-10l16 -17c7,-9 12,-18 17,-28 3,-5 4,-10 7,-16 4,-10 8,-22 11,-33l9 -35c3,-12 5,-24 7,-36 2,-13 4,-25 6,-38 3,-22 4,-39 7,-59 1,-6 2,-15 2,-20l43 12 0 281c-4,0 -4,2 -7,2 -15,5 -67,11 -82,12l-81 3c-4,0 -5,-1 -10,-1 -14,0 -16,-1 -29,-2 -42,-2 -97,-13 -135,-32 -12,-6 -19,-9 -29,-18l-8 -8c-26,-26 -35,-39 -42,-84 -4,-25 -4,-50 -4,-80l14 -11c5,-4 9,-8 14,-11 3,-2 5,-3 7,-5l8 -6c5,-4 10,-7 16,-10 11,-6 22,-12 33,-17 6,-3 12,-6 18,-8 3,-1 6,-2 9,-4 2,-1 3,-1 5,-2l5 -2zm-157 110l0 -35c0,-1 0,-3 0,-4 2,-10 9,-19 15,-22 6,-4 12,-10 18,-15 3,-2 6,-5 10,-7 2,-2 3,-2 5,-3l5 -4c1,-2 0,-1 2,-2 1,-1 1,-1 2,-1l43 -25c22,-10 54,-22 76,-27 11,-3 40,-12 48,-1 4,6 7,53 9,67l5 40c2,14 10,65 13,77 6,24 17,67 33,87 5,7 7,10 14,15 9,7 13,2 20,-3 2,-2 2,-2 4,-4 14,-19 19,-28 27,-53 4,-12 10,-36 12,-48l9 -50c3,-17 5,-35 7,-52l5 -54c0,-1 0,1 1,-2 1,-4 0,-15 6,-19 6,-5 16,-2 24,-1 5,-1 27,5 32,6 8,2 36,10 39,19l0 57c0,8 1,12 1,19l0 57c0,15 1,141 0,153 -3,33 6,33 -33,43 -26,7 -66,11 -93,12 -4,0 -4,1 -8,1 -3,0 -6,0 -10,0 -13,1 -18,0 -28,1 -23,2 -50,-1 -72,-3l-53 -5c-29,-5 -48,-10 -74,-20 -27,-10 -49,-26 -69,-46 -33,-33 -39,-65 -44,-109 -1,-8 -2,-21 -3,-35z"/>
   <path class="fil0" d="M634 533l270 0c1,6 1,309 0,313l-270 0 0 -313zm298 -65l0 23 0 328 0 43c0,2 0,3 -1,4 0,1 -5,5 -6,6 -3,3 -2,3 -8,3l-115 -1c-62,0 -125,0 -187,0 -1,-2 -2,-3 -4,-5 -2,-2 -3,-2 -3,-5 -2,-7 -1,-44 -1,-54l0 -320c0,-12 -2,-42 8,-45l310 0c1,2 1,1 2,3 4,2 4,13 4,19zm-297 5l270 0c1,4 1,28 0,33l-270 0 0 -33z"/>
   <path class="fil0" d="M381 513c-24,0 -46,-6 -64,-21 -2,-2 -4,-3 -5,-4 -2,-2 -3,-3 -5,-4 -6,-5 -17,-19 -22,-26 -12,-18 -18,-30 -24,-51 -2,-5 -3,-9 -6,-13 -3,-5 -5,-7 -11,-8 -12,-2 -13,-14 -13,-25 0,-9 -2,-21 5,-22 9,-2 11,4 16,-20 6,-29 5,-45 33,-62 3,-2 12,-7 16,-6 6,1 35,17 44,21 1,1 3,1 4,2 29,11 47,9 73,-5 28,-16 29,-23 54,-9 40,22 22,74 42,78 6,1 8,0 10,6 1,6 0,32 -6,38 -6,6 -15,3 -19,11 -1,3 -7,22 -12,32 -11,24 -14,28 -29,47 -18,23 -50,40 -80,40zm-179 -170c0,12 -1,27 3,38 3,11 10,20 18,26 14,10 9,9 17,26l13 26c1,2 1,2 2,4 7,11 15,21 23,31 5,6 10,11 17,17 29,22 48,32 90,32 35,0 65,-18 88,-41 8,-8 11,-11 18,-20 1,-2 1,-2 2,-4l23 -41c3,-8 6,-16 10,-23 3,-4 1,-3 5,-5 10,-6 24,-25 24,-42 0,-24 4,-43 -14,-51 -9,-5 -8,-15 -12,-29 -2,-7 -5,-13 -8,-19 -9,-16 -26,-32 -43,-39 -22,-10 -36,-8 -56,4 -51,29 -40,23 -100,-4 -7,-3 -13,-6 -23,-6 -15,0 -37,13 -46,22l-8 9c0,0 0,0 0,0 -7,7 -14,24 -17,33 -1,6 -3,17 -5,22 -3,8 -21,7 -21,33z"/>
   <path class="fil0" d="M203 216c0,5 0,11 0,16 0,6 1,9 1,16 0,6 0,11 2,15 5,8 17,9 23,2 5,-6 3,-21 3,-29 1,-27 1,-53 1,-81 5,-3 8,-5 13,-8 33,-20 80,-32 121,-32 47,0 59,-2 106,12 26,7 34,12 55,26 0,36 2,75 2,110 7,5 12,13 25,3 3,-2 2,-2 2,-6 0,-4 1,-5 1,-9 1,-31 0,-77 0,-109 -3,-1 -13,-11 -18,-15 -3,-3 -6,-4 -10,-7 -4,-3 -7,-4 -11,-6 -9,-6 -40,-16 -50,-18 -11,-2 -18,-4 -29,-5 -4,0 -11,-1 -15,-2 -3,0 -5,0 -8,0l-25 -1c-6,0 -9,-1 -14,-1l-3 0 -32 1c-12,2 -17,2 -29,4 -12,3 -14,2 -28,6 -9,3 -17,5 -25,8 -17,6 -40,19 -53,31 -8,7 -3,30 -5,45 -1,8 0,24 0,33z"/>
   <path class="fil0" d="M654 720c0,4 3,7 5,10 3,5 3,5 11,5 29,0 59,-1 88,1 18,1 40,0 59,0 6,0 8,-1 13,-1 5,0 10,0 15,0 18,0 22,-15 13,-25 -4,-4 -4,-3 -10,-3 -61,1 -125,0 -186,0 -1,4 -6,7 -6,13z"/>
   <path class="fil0" d="M367 164c-9,0 -32,-1 -37,4 -6,6 -7,24 9,24 9,0 18,0 28,0 0,9 0,18 0,28 0,9 5,14 14,14 4,0 8,-2 10,-4 6,-5 5,-29 5,-38 11,0 31,2 37,-4 8,-9 0,-24 -10,-23l-28 -1c-1,-9 1,-19 0,-27 -1,-6 -11,-21 -23,-9 -7,8 -1,29 -4,35z"/>
   <path class="fil0" d="M654 660c0,4 7,13 10,13l129 -1c5,-1 6,0 8,-3 5,-6 3,-18 -4,-22 -8,-4 -79,-3 -93,-3 -12,0 -21,1 -32,1 -10,0 -18,5 -18,15z"/>
   <path class="fil0" d="M654 779c0,7 2,7 5,11 3,4 2,5 10,6 10,0 18,-1 29,-1 20,0 40,0 60,0 4,-7 6,-5 6,-16 0,-15 -15,-13 -29,-13l-72 0c-3,0 -10,9 -10,13z"/>
   <path class="fil0" d="M654 598c0,5 1,6 4,10 2,2 3,6 6,6 32,0 58,0 90,-1 12,0 12,-11 12,-18 0,-10 -13,-11 -23,-11 -9,0 -73,-1 -79,1 -3,1 -9,8 -9,13z"/>
   <path class="fil0" d="M635 534l269 0 0 311 -269 0 0 -311zm0 312l270 0c1,-4 1,-308 0,-313l-270 0 0 313z"/>
   <path class="fil0" d="M635 474l269 0 0 30 -269 0 0 -30zm-1 31l270 0c1,-5 1,-29 0,-33l-270 0 0 33z"/>
   <path class="fil0" d="M607 864c-2,-7 -1,-44 -1,-54l0 -320c0,-12 -2,-42 8,-45l310 0c1,2 1,1 2,3 -1,-5 -4,-4 -16,-4l-300 0c-1,5 -5,3 -5,21l-1 386c0,2 0,5 0,7 0,5 -1,4 2,5z"/>
   <path class="fil0" d="M228 562c7,-1 15,-4 21,-6 5,-1 16,-5 21,-5l6 62c0,2 1,8 1,10 1,4 0,8 3,10 -1,-9 -9,-81 -10,-83 -7,0 -38,9 -43,12z"/>
   <path class="fil0" d="M367 164c3,-6 -3,-28 4,-35 12,-12 22,3 23,9 1,8 0,18 0,27l28 1c-3,-2 -23,-1 -27,-1 0,-16 5,-39 -14,-42 -6,-1 -15,5 -15,13 0,9 0,19 0,28z"/>
   <path class="fil0" d="M455 545c0,-1 0,1 1,-2 1,-4 0,-15 6,-19 6,-5 16,-2 24,-1 -1,-2 -1,-1 -6,-2 -18,-3 -26,-1 -26,24z"/>
   <path class="fil0" d="M87 611c6,-4 12,-10 18,-15 3,-2 6,-5 10,-7 2,-2 3,-2 5,-3l5 -4c-3,1 -8,4 -10,6l-23 19c-3,2 -2,2 -4,5z"/>
  </g>
 </g>
</svg>
