<?xml version="1.0" encoding="UTF-8"?>
<!DOCTYPE svg PUBLIC "-//W3C//DTD SVG 1.1//EN" "http://www.w3.org/Graphics/SVG/1.1/DTD/svg11.dtd">
<!-- Creator: CorelDRAW 2017 -->
<svg xmlns="http://www.w3.org/2000/svg" xml:space="preserve" width="5mm" height="5mm" version="1.1" style="shape-rendering:geometricPrecision; text-rendering:geometricPrecision; image-rendering:optimizeQuality; fill-rule:evenodd; clip-rule:evenodd"
viewBox="0 0 500 500"
 xmlns:xlink="http://www.w3.org/1999/xlink">
 <defs>
  <style type="text/css">
   <![CDATA[
    .fil0 {fill:#D61515}
   ]]>
  </style>
 </defs>
 <g id="Слой_x0020_1">
  <metadata id="CorelCorpID_0Corel-Layer"/>
  <path class="fil0" d="M260 32c117,0 212,95 212,212 0,117 -95,212 -212,212 -117,0 -212,-95 -212,-212 0,-117 95,-212 212,-212zm-127 98c-1,1 -2,3 -4,5 -10,9 -18,29 -13,53 20,106 109,186 216,196 2,0 5,0 7,0 12,0 24,-3 33,-9 4,-3 8,-6 12,-10l9 -10c18,-20 16,-51 -3,-69l-16 -14c-9,-8 -20,-13 -33,-13 -14,0 -27,6 -36,16l-9 10c-4,4 -6,8 -9,13 -37,-15 -67,-43 -85,-78 7,-3 13,-7 18,-12l9 -10c9,-10 13,-22 12,-35 -1,-13 -6,-25 -16,-34l-16 -14c-9,-8 -20,-13 -33,-13 -14,0 -27,6 -36,16l-9 10z"/>
 </g>
</svg>
