<?xml version="1.0" encoding="UTF-8"?>
<!DOCTYPE svg PUBLIC "-//W3C//DTD SVG 1.1//EN" "http://www.w3.org/Graphics/SVG/1.1/DTD/svg11.dtd">
<!-- Creator: CorelDRAW 2017 -->
<svg xmlns="http://www.w3.org/2000/svg" xml:space="preserve" width="5mm" height="5mm" version="1.1" style="shape-rendering:geometricPrecision; text-rendering:geometricPrecision; image-rendering:optimizeQuality; fill-rule:evenodd; clip-rule:evenodd"
viewBox="0 0 500 500"
 xmlns:xlink="http://www.w3.org/1999/xlink">
 <defs>
  <style type="text/css">
   <![CDATA[
    .fil0 {fill:#D61515}
   ]]>
  </style>
 </defs>
 <g id="Слой_x0020_1">
  <metadata id="CorelCorpID_0Corel-Layer"/>
  <path class="fil0" d="M136 329c1,-3 34,-31 40,-36 4,-4 39,-35 41,-35l33 27 16 -14c3,-3 14,-12 16,-14l21 18c7,6 14,12 21,18 12,10 25,21 37,31 2,2 3,2 5,4l-231 0zm161 -83c1,-3 4,-4 5,-5l11 -9c9,-8 18,-16 27,-24 6,-5 41,-36 43,-37l0 150 -54 -47c-2,-2 -3,-3 -5,-5l-5 -5c-4,-3 -7,-6 -11,-9l-11 -9zm-179 -76l83 75c-2,2 -18,16 -21,19l-63 56 0 -150zm132 89c-2,-1 -2,-1 -4,-3 -1,-1 -2,-2 -4,-3 -2,-2 -5,-4 -7,-6 -2,-2 -5,-4 -7,-6 -2,-2 -5,-4 -7,-6 -11,-10 -25,-21 -36,-31l-25 -22c-1,-1 -2,-2 -4,-3 -2,-2 -5,-4 -7,-6 -3,-3 -13,-11 -14,-12l228 0c-3,4 -36,31 -43,37 -5,4 -9,8 -14,12l-14 12c-8,6 -38,34 -43,37zm-14 -224c-31,2 -59,11 -83,23 -13,7 -30,17 -40,26 -2,1 -2,2 -4,3 -6,5 -11,11 -17,17 -32,34 -59,90 -54,156 7,112 104,205 225,197 43,-3 84,-19 115,-43 6,-5 16,-13 21,-19l12 -14c15,-19 25,-34 35,-58 11,-27 16,-59 14,-91 -2,-33 -10,-57 -23,-83 -8,-16 -21,-34 -33,-47 -7,-7 -13,-13 -20,-19 -2,-2 -5,-4 -7,-6 -41,-30 -88,-46 -142,-43z"/>
 </g>
</svg>
