<?xml version="1.0" encoding="UTF-8"?>
<!DOCTYPE svg PUBLIC "-//W3C//DTD SVG 1.1//EN" "http://www.w3.org/Graphics/SVG/1.1/DTD/svg11.dtd">
<!-- Creator: CorelDRAW 2017 -->
<svg xmlns="http://www.w3.org/2000/svg" xml:space="preserve" width="10mm" height="10mm" version="1.1" style="shape-rendering:geometricPrecision; text-rendering:geometricPrecision; image-rendering:optimizeQuality; fill-rule:evenodd; clip-rule:evenodd"
viewBox="0 0 1000 1000"
 xmlns:xlink="http://www.w3.org/1999/xlink">
 <defs>
  <style type="text/css">
   <![CDATA[
    .fil0 {fill:#D61515}
   ]]>
  </style>
 </defs>
 <g id="Слой_x0020_1">
  <metadata id="CorelCorpID_0Corel-Layer"/>
  <g id="_2649220523408">
   <path class="fil0" d="M743 413c-9,3 -28,14 -37,18l-74 37c-12,6 -28,11 -30,24 -2,17 14,27 30,19 18,-9 100,-52 110,-55l-1 106c-22,0 -136,-2 -148,1 -22,7 -18,32 -18,57 0,25 0,49 0,74 0,16 -3,60 4,71 12,19 40,13 44,-9 4,-20 -3,-130 1,-146 49,0 98,0 147,0 24,0 40,-10 46,-29 3,-11 2,-124 2,-145 0,-21 4,-51 -6,-66 -9,-13 -31,-25 -52,-12 -19,12 -18,27 -19,54z"/>
   <path class="fil0" d="M219 610l159 0 1 141c1,14 16,26 32,19 15,-6 15,-21 15,-40 0,-37 0,-75 0,-112 0,-16 3,-38 -6,-49 -10,-12 -29,-8 -47,-8 -36,0 -76,2 -111,0l0 -107c5,1 12,7 16,9 25,14 62,37 84,48 15,8 31,-4 29,-20 -2,-13 -17,-18 -28,-25l-67 -39c-10,-6 -23,-14 -34,-19 0,-18 2,-33 -9,-44 -24,-26 -58,-12 -66,12 -4,13 -2,140 -2,159 0,15 -2,36 4,49 4,10 18,22 31,24z"/>
   <path class="fil0" d="M153 664l81 1c2,6 2,59 0,66l-48 0 -40 40 199 0c-4,-7 -10,-11 -16,-17 -27,-27 -19,-24 -41,-24 -10,0 -20,0 -31,0l0 -66c15,0 73,2 83,-1 10,-3 18,-11 18,-24 0,-11 -9,-21 -19,-23 -8,-2 -152,0 -166,-1 -17,-51 -33,-103 -49,-155 -8,-27 -17,-51 -25,-78 -5,-15 -7,-27 -18,-33 -15,-7 -29,2 -34,13 -4,12 4,30 8,41l74 231c2,4 3,4 4,8 1,4 2,6 4,9 3,5 8,9 15,10z"/>
   <path class="fil0" d="M815 732l-2 0c-10,0 -40,1 -48,-1 0,-3 -2,-61 1,-65 20,-1 42,0 62,0 24,0 34,-1 39,-23l61 -250c7,-27 6,-30 -12,-42 -33,-5 -33,23 -40,50l-35 145c-3,12 -6,24 -9,36 -2,10 -5,27 -9,36 -21,0 -157,-1 -165,1 -24,7 -22,42 2,47 7,1 69,0 81,0l-1 66c-11,0 -21,0 -32,0 -19,0 -14,-1 -24,9 -6,6 -28,27 -31,32l199 0c-7,-7 -13,-13 -20,-20 -4,-4 -6,-6 -10,-10l-7 -8c-1,-2 -1,-1 -1,-3z"/>
   <path class="fil0" d="M552 129c-3,5 -31,28 -23,70 10,51 69,78 119,68 24,-5 14,-8 34,6 7,4 24,16 30,19l-15 -48c10,-11 17,-15 25,-35 12,-33 -3,-66 -29,-86 -13,-10 -23,-13 -41,-19 -22,-3 -38,-4 -59,2 -23,7 -25,12 -39,22 -2,2 0,0 -2,1z"/>
   <path class="fil0" d="M482 130c-9,-5 -19,-21 -49,-29l-20 -4c0,0 -1,0 -1,0 -12,3 -62,-5 -95,42 -24,35 -12,77 12,99l-13 42c9,-4 21,-10 30,-15 20,-11 11,-6 33,-1 49,10 106,-13 120,-62 12,-42 -15,-65 -16,-72z"/>
   <polygon class="fil0" points="468,772 544,772 544,554 468,554 "/>
   <path class="fil0" d="M319 521c-7,2 -12,8 -8,16 3,7 10,7 19,7 43,0 357,2 364,-1 9,-3 18,-23 -11,-23 -34,0 -358,-1 -364,0z"/>
   <path class="fil0" d="M223 227c-25,5 -40,32 -38,63 2,26 21,55 50,50 24,-4 40,-33 38,-63 -2,-26 -21,-55 -50,-50z"/>
   <path class="fil0" d="M783 228c-25,5 -41,31 -39,63 2,26 21,56 51,50 24,-4 40,-33 37,-63 -2,-26 -21,-55 -49,-50z"/>
   <path class="fil0" d="M379 751l-1 -141 -159 0c3,3 142,1 159,1 0,14 -1,138 1,140z"/>
   <path class="fil0" d="M187 732l48 0c2,-7 2,-61 0,-66l-81 -1 81 2 0 64c-8,0 -16,0 -25,0 -5,0 -19,-2 -23,1z"/>
   <path class="fil0" d="M813 732c-4,-3 -18,-1 -23,-1 -8,0 -16,0 -24,0l0 -65c-3,5 -1,63 -1,65 7,2 37,0 48,1z"/>
  </g>
 </g>
</svg>
