<?xml version="1.0" encoding="UTF-8"?>
<!DOCTYPE svg PUBLIC "-//W3C//DTD SVG 1.1//EN" "http://www.w3.org/Graphics/SVG/1.1/DTD/svg11.dtd">
<!-- Creator: CorelDRAW 2017 -->
<svg xmlns="http://www.w3.org/2000/svg" xml:space="preserve" width="10mm" height="10mm" version="1.1" style="shape-rendering:geometricPrecision; text-rendering:geometricPrecision; image-rendering:optimizeQuality; fill-rule:evenodd; clip-rule:evenodd"
viewBox="0 0 1000 1000"
 xmlns:xlink="http://www.w3.org/1999/xlink">
 <defs>
  <style type="text/css">
   <![CDATA[
    .str0 {stroke:#D61515;stroke-width:7.62}
    .fil0 {fill:none}
    .fil1 {fill:#D61515}
   ]]>
  </style>
 </defs>
 <g id="Слой_x0020_1">
  <metadata id="CorelCorpID_0Corel-Layer"/>
  <path class="fil0 str0" d="M306 813l439 0 0 29c-7,2 -433,2 -439,0l0 -29zm-86 -603l0 66c-2,36 0,106 0,148l0 16c1,6 -2,3 3,4 24,-5 41,-27 59,-45l132 -132c10,-9 15,-20 37,-18 7,4 12,6 15,16 3,11 -1,18 -5,24l-175 174c-26,22 -36,22 -65,29l0 437 585 0 0 -645 -123 -1 0 -39 0 -84 -204 1c-2,1 -9,9 -11,11l-83 83c-12,12 -89,91 -96,93 -14,5 -27,-4 -30,-15 -5,-18 7,-26 15,-33 16,-16 31,-31 48,-48 16,-16 32,-31 48,-48 8,-8 43,-41 46,-47l-76 0 -67 0 -50 0 -1 50zm86 532c6,-2 432,-2 439,0l0 29 -439 0 0 -29zm0 -74l439 0 0 29c-8,2 -433,2 -439,0l0 -29zm0 -71l3 0 439 0 -3 0 1 29 -440 0 0 -29z"/>
  <path class="fil1" d="M220 491c29,-7 38,-7 65,-29l175 -174c5,-6 8,-13 5,-24 -2,-9 -8,-11 -15,-16 -22,-3 -27,8 -37,18l-132 132c-19,19 -36,41 -59,45 -11,4 -28,1 -37,-2 -28,-11 -50,-43 -41,-77 6,-22 18,-30 35,-48l41 -41 0 -66c-8,5 -25,24 -33,32 -11,11 -22,22 -33,33 -21,21 -45,39 -55,78 -9,36 1,76 26,103 11,12 24,21 39,27 18,8 33,9 57,9zm51 -332l67 0c1,-3 60,-64 69,-67 19,-7 39,10 37,29 -1,14 -24,34 -30,38 -3,6 -39,39 -46,47 -16,16 -31,32 -48,48 -16,16 -31,32 -48,48 -7,7 -19,15 -15,33 3,11 16,20 30,15 7,-2 84,-82 96,-93l83 -83c2,-2 9,-10 11,-11 0,-3 -1,-3 1,-2 5,-13 10,-19 11,-36 1,-25 -6,-36 -17,-53 -3,-5 -7,-7 -12,-11 -19,-13 -15,-9 -32,-15 -50,-3 -59,15 -90,45 -9,9 -65,63 -68,69z"/>
  <path class="fil1" d="M306 842c6,2 432,2 439,0l0 -29 -439 0 0 29z"/>
  <path class="fil1" d="M306 696c6,2 432,2 439,0l0 -29 -439 0 0 29z"/>
  <path class="fil1" d="M306 770l439 0 0 -29c-7,-2 -434,-2 -439,0l0 29z"/>
  <polygon class="fil1" points="306,625 746,625 745,596 748,596 309,596 306,596 "/>
  <path class="fil1 str0" d="M683 245l0 39 123 1 0 645 -585 0c5,3 140,1 146,1 122,0 244,0 366,0 24,0 51,1 74,0 3,-34 0,-77 0,-111l0 -503c0,-35 4,-29 -12,-45 -19,-19 -37,-37 -56,-56 -9,-9 -53,-51 -56,-57 -15,3 -81,1 -102,1 -34,0 -68,0 -102,0 -2,0 -1,-1 -2,2l204 -1 0 84z"/>
  <path class="fil1" d="M508 474c-3,-26 19,-50 44,-51 27,-1 49,18 51,44 2,27 -19,49 -44,51 -28,2 -48,-19 -51,-44zm51 -87c0,2 3,5 2,7 -1,1 -9,1 -11,0 0,-2 1,-4 2,-6 -1,-2 -4,-4 -3,-8 2,-11 21,-4 10,7zm-11 -37c-5,-9 1,-16 8,-16 8,0 12,10 7,17 -2,-2 -2,-4 -7,-5 -5,0 -5,4 -8,4zm59 64c-1,0 0,0 -1,0 0,0 0,0 -1,0l-4 -3c-7,-6 -5,1 -5,-22 0,-6 0,-12 0,-18 0,-4 1,-5 -1,-8 -2,-3 -3,-2 -7,-2 -6,0 -12,0 -19,0 0,-1 3,-5 5,-8 1,-1 1,-2 1,-3 3,0 10,0 13,0 8,0 13,2 17,10 3,5 2,5 2,12 0,9 0,18 0,26 0,6 -1,3 5,9 2,2 5,4 7,7 1,0 0,0 0,-1 0,-1 0,-1 0,-1 -1,-1 0,0 -1,-1l-1 -4c-1,-7 -1,-11 1,-18 2,-7 5,-13 9,-18 7,-9 18,-18 35,-19 23,-1 41,13 48,32 1,3 2,7 2,11 0,3 1,11 -1,13 0,5 -4,14 -6,17 -2,3 -9,11 -11,12 -1,1 0,1 -1,1 0,0 -1,1 -2,1 -12,9 -30,11 -44,5 -7,-3 -11,-7 -13,-8l0 2c1,2 4,12 5,15 1,6 2,12 2,18 12,5 32,4 44,0 24,-7 43,-25 51,-49 2,-7 3,-14 4,-21 0,-10 -3,-21 -3,-22l-1 -1c-1,-3 -1,-5 -4,-9 -2,-3 -3,-6 -5,-10 -12,-18 -31,-31 -55,-34 -19,-2 -35,3 -48,10 -2,1 -3,0 -5,-1 -2,-1 -3,-2 -5,-2l-21 -9c-3,-1 -8,-4 -11,-4 -4,1 -4,2 -6,7 -1,2 -1,3 -2,5 -1,2 -2,4 -3,5 -1,-1 -2,-2 -3,-3 -3,-3 -7,-6 -11,-7 -7,-2 -14,0 -18,4 -8,6 -10,17 -6,25 2,3 5,5 5,7 -6,0 -12,0 -18,0 -8,0 -9,1 -9,9 0,6 0,12 0,19 0,6 0,13 0,19l-8 7c-3,3 -5,5 -7,7 -9,10 -17,27 -18,42 -1,10 0,19 2,27 5,16 13,29 23,37 10,8 24,17 41,19 38,4 65,-18 77,-42 7,-15 10,-35 5,-51 -2,-8 -5,-14 -9,-21 -6,-10 -12,-14 -13,-16 0,-1 0,0 0,-1z"/>
 </g>
</svg>
