<?xml version="1.0" encoding="UTF-8"?>
<!DOCTYPE svg PUBLIC "-//W3C//DTD SVG 1.1//EN" "http://www.w3.org/Graphics/SVG/1.1/DTD/svg11.dtd">
<!-- Creator: CorelDRAW 2017 -->
<svg xmlns="http://www.w3.org/2000/svg" xml:space="preserve" width="10mm" height="10mm" version="1.1" style="shape-rendering:geometricPrecision; text-rendering:geometricPrecision; image-rendering:optimizeQuality; fill-rule:evenodd; clip-rule:evenodd"
viewBox="0 0 1000 1000"
 xmlns:xlink="http://www.w3.org/1999/xlink">
 <defs>
  <style type="text/css">
   <![CDATA[
    .fil0 {fill:#D61515}
   ]]>
  </style>
 </defs>
 <g id="Слой_x0020_1">
  <metadata id="CorelCorpID_0Corel-Layer"/>
  <g id="_2649228001424">
   <path class="fil0" d="M142 200l709 0c4,0 10,1 14,2 11,3 20,17 20,30l0 455c0,18 -15,32 -35,32l-709 0c-7,0 -15,-3 -20,-6 -5,-3 -9,-8 -12,-14 -4,-12 -2,-35 -2,-51l0 -317c9,2 26,12 35,17l16 10c10,7 15,11 25,19l9 9c13,11 6,6 15,16l1 1c0,0 0,0 0,1 0,0 0,0 0,1l12 14c5,6 13,21 16,28 2,5 9,20 9,26l-9 -67c0,-3 -1,-4 -2,-7 -1,-7 -2,-9 -2,-16 -3,-20 -4,-39 -23,-49 -9,-5 -22,-4 -32,-4 -12,0 -65,-2 -71,1 0,-13 -1,-94 1,-103 1,-11 8,-20 17,-24 4,-2 11,-4 17,-4zm-101 32l0 458c0,24 15,53 33,69 7,6 13,10 21,14 21,10 29,11 58,11l690 0c13,0 22,0 30,-2 45,-10 78,-49 78,-95l0 -458c0,-24 -12,-49 -29,-66 -15,-15 -38,-28 -67,-28l-718 0c-17,0 -41,7 -54,18 -2,2 -5,3 -7,5 -11,9 -20,22 -26,34 -5,9 -9,26 -9,40z"/>
   <path class="fil0" d="M751 501l-46 0c0,-4 21,-69 26,-82 1,-4 2,-9 4,-12 3,12 7,45 10,57l6 36zm-134 88l59 0c0,-4 7,-21 9,-28 1,-3 2,-7 2,-10l73 0c0,5 1,5 1,9 1,3 1,7 1,10l3 19 54 0c0,-4 -2,-12 -2,-17l-6 -32c-8,-47 -19,-102 -26,-147 -2,-11 -4,-19 -5,-31l-6 -33 -60 0c-3,0 -4,3 -5,6l-15 41c-1,4 -2,5 -3,8l-15 42c-4,12 -8,21 -12,33l-12 33c-1,1 -1,3 -1,4 -1,2 0,0 -1,2l-18 50c-1,3 -1,2 -2,4 -1,2 -1,2 -2,4 -2,6 -4,10 -6,16 -1,3 -2,5 -3,8 -1,3 -3,7 -3,9z"/>
   <path class="fil0" d="M477 404c0,17 1,28 10,42 3,5 9,13 14,16 24,20 56,26 57,49 2,33 -57,26 -82,16 -4,-2 -8,-5 -13,-5 0,4 -1,9 -2,13l-8 40c5,1 9,4 13,6 8,3 22,6 31,7 34,3 58,-1 87,-25 24,-20 42,-52 31,-83 -10,-30 -36,-39 -56,-52 -3,-2 -3,-2 -6,-4 -5,-3 -15,-11 -15,-18 0,-9 0,-16 13,-22 8,-3 14,-4 24,-5 8,-1 25,6 32,10 3,2 6,5 10,5l6 -35c4,-22 8,-19 -9,-25 -26,-9 -54,-11 -80,-3 -10,3 -20,8 -28,14 -2,2 -3,3 -5,5 -5,4 -11,13 -14,18 -3,6 -4,9 -6,15 -2,6 -3,11 -3,18z"/>
   <path class="fil0" d="M255 510c0,-5 -3,-20 -4,-23 -1,-3 -2,-6 -4,-9l-4 -10c-10,-21 -22,-40 -37,-58 -11,-13 -20,-22 -36,-32 1,8 4,18 6,26 2,9 4,19 6,27l35 158 65 0 11 -33c4,-11 7,-21 11,-33l7 -19c0,-1 1,-3 1,-4 1,-3 2,-5 3,-8l33 -97c4,-11 8,-22 11,-33 2,-6 4,-10 6,-16 2,-6 4,-12 6,-17l-56 0c-8,0 -8,0 -9,7 -1,3 0,0 -1,2l-1 6c-1,3 -1,4 -2,7l-30 103c-2,11 -9,31 -13,44 -1,5 -2,11 -5,14z"/>
   <path class="fil0" d="M359 589l60 0c0,-4 1,-12 2,-16 1,-5 1,-11 2,-17 2,-12 2,-19 4,-31 3,-23 6,-43 9,-66 3,-26 8,-55 11,-80 1,-5 1,-11 2,-17l4 -34 -58 0c-3,0 -2,2 -4,12l-9 66c0,3 0,5 -1,8l-22 165c0,2 -1,6 -2,8z"/>
  </g>
 </g>
</svg>
